<?xml version="1.0" encoding="utf-8"?>
<!-- Generator: Adobe Illustrator 20.1.0, SVG Export Plug-In . SVG Version: 6.00 Build 0)  -->
<svg version="1.1" id="Layer_1" xmlns="http://www.w3.org/2000/svg" xmlns:xlink="http://www.w3.org/1999/xlink" x="0px" y="0px"
	 viewBox="0 0 760 400" style="enable-background:new 0 0 760 400;" xml:space="preserve">
<style type="text/css">
	.st0{fill:#EC1C24;}
	.st1{fill:#FFFFFF;}
</style>
<g>
	<g>
		<rect x="105.3" y="96.8" class="st0" width="58.9" height="97"/>
		<rect x="105.3" y="205.5" class="st0" width="58.9" height="97"/>
		<rect x="175.8" y="96.8" class="st0" width="58.9" height="97"/>
		<rect x="175.7" y="205.5" class="st0" width="58.9" height="97"/>
		<rect x="246.2" y="96.8" class="st0" width="59" height="97"/>
		<rect x="246.3" y="205.5" class="st0" width="59" height="97"/>
		<rect x="316.9" y="96.8" class="st0" width="58.9" height="97"/>
		<rect x="316.9" y="205.5" class="st0" width="58.9" height="97"/>
		<rect x="387.5" y="96.8" class="st0" width="58.9" height="97"/>
		<rect x="387.5" y="205.5" class="st0" width="58.9" height="97"/>
		<rect x="458" y="96.8" class="st0" width="58.9" height="97"/>
		<rect x="458" y="205.5" class="st0" width="58.9" height="97"/>
		<rect x="528.5" y="96.8" class="st0" width="58.9" height="97"/>
		<rect x="528.5" y="205.5" class="st0" width="58.9" height="97"/>
		<rect x="599.1" y="96.8" class="st0" width="58.9" height="97"/>
		<rect x="599.1" y="205.5" class="st0" width="58.9" height="97"/>
	</g>
	<g>
		<path class="st1" d="M134.9,110.7c12.1,0,15.9,5.6,15.9,17.4v7.5h-13.6v-12c0-2.3-0.6-3.3-2.4-3.3c-1.7,0-2.3,0.9-2.3,3.3v44.1
			c0,2.2,0.6,3.3,2.3,3.3c1.7,0,2.4-0.9,2.4-3.3v-13.6h13.6v9.8c0,11.9-3.9,17.4-15.9,17.4c-12.1,0-15.8-5.5-15.8-17.4v-35.8
			C119.1,116.2,123,110.7,134.9,110.7z"/>
		<path class="st1" d="M189.4,111.4H203V137h4.3v-25.6h13.6v69.1h-13.6v-33.4H203v33.4h-13.6V111.4z"/>
		<path class="st1" d="M419.5,140.3c0,3-0.9,3.8-3.7,3.8c-0.3,0-0.6,0-0.8,0v-23.7c0.2,0,0.4,0,0.6,0c3.1,0,4,0.9,4,3.9V140.3z
			 M401.3,180.5h13.7v-26.8c0.6,0,1.1,0,1.6,0c12,0,16.5-4.2,16.5-14.8v-14.7c0-8.6-4.9-12.4-15.8-12.4h-15.9L401.3,180.5z"/>
		<path class="st1" d="M320.8,111.7h19.5l4.5,35.9c0.6,4.5,0.9,8.6,1.1,12.4h0.5c0.5-6.5,1.2-10.9,1.5-13.4l5.3-35h18.7v68.8h-12.4
			v-36.4c0-3.7,0.1-8.7,0.3-14.9h-0.4c-0.3,6.4-1,10.4-1.3,12l-6.6,39.3h-11.6l-6.4-37.3c-0.4-2.3-0.9-7-1.3-13.9h-0.5
			c0,1,0.1,18.1,0.1,51.3h-11V111.7z"/>
		<path class="st1" d="M480.5,111.5h13.7v68.8h-13.7V111.5z"/>
		<path class="st1" d="M555.7,123.3c0-2.3,0.7-3.3,2.3-3.3c1.8,0,2.4,1,2.4,3.3v44.5c0,2.4-0.7,3.3-2.4,3.3c-1.7,0-2.3-1-2.3-3.3
			V123.3z M542,127.9l0,36c0,12,3.9,17.6,15.9,17.6c12.1,0,15.9-5.6,15.9-17.6l0-36c0-11.9-3.8-17.6-15.9-17.6
			C546,110.3,542,115.8,542,127.9z"/>
		<path class="st1" d="M610.7,111.6h18.7l4.8,29.2c1,5.6,1.5,12.2,1.9,19.9h0.6c-0.5-11-0.7-17.9-0.7-20.6l-0.1-28.5h10.7v68.9h-16
			l-7-37.4c-0.3-1.6-1.1-7.1-2.3-16.4h-0.4c0.4,5.7,0.6,10.1,0.6,12.8v41h-10.8L610.7,111.6z"/>
		<path class="st1" d="M132.7,229c3.6,0,4.6,0.7,4.6,4v41.9c0,2.8-1.1,3.8-3.9,3.8c-0.3,0-0.5,0-0.8,0V229z M119.2,288.5h15
			c12.6,0,16.9-5.2,16.9-17v-34.9c0-11.8-3.8-16.9-15.9-16.9h-15.9V288.5z"/>
		<path class="st1" d="M202.7,260l2.3-30.5h0.6L208,260H202.7z M186.3,288.5h13.9l1.8-18.3h6.7l1.3,18.3h14.1l-8.1-68.8h-20.9
			L186.3,288.5z"/>
		<path class="st1" d="M343.9,260l2.3-30.5h0.6l2.6,30.5H343.9z M327.5,288.5h13.9l1.8-18.3h6.7l1.3,18.3h14.1l-8.1-68.8h-20.9
			L327.5,288.5z"/>
		<path class="st1" d="M268.9,229.4h-8.7v-9.7h31.1v9.7h-8.8v59h-13.6L268.9,229.4z"/>
		<polygon class="st1" points="424.1,219.7 397.1,288.4 409.9,288.4 437,219.7 		"/>
		<polygon class="st1" points="494.6,219.7 467.6,288.4 480.4,288.4 507.5,219.7 		"/>
		<polygon class="st1" points="564.9,219.7 537.9,288.4 550.7,288.4 577.8,219.7 		"/>
		<polygon class="st1" points="636.1,219.7 609.1,288.4 621.9,288.4 649,219.7 		"/>
		<path class="st1" d="M273.2,151.9l2.3-30.5h0.6l2.6,30.5H273.2z M256.8,180.4h13.9l1.8-18.3h6.7l1.3,18.3h14.1l-8.1-68.8h-20.9
			L256.8,180.4z"/>
	</g>
</g>
</svg>
